<svg width="1280" height="720" xmlns="http://www.w3.org/2000/svg" xmlns:xlink="http://www.w3.org/1999/xlink" overflow="hidden"><defs><filter id="fx0" x="-10%" y="-10%" width="120%" height="120%" filterUnits="userSpaceOnUse" primitiveUnits="userSpaceOnUse"><feComponentTransfer color-interpolation-filters="sRGB"><feFuncR type="discrete" tableValues="1 1"/><feFuncG type="discrete" tableValues="1 1"/><feFuncB type="discrete" tableValues="1 1"/><feFuncA type="linear" slope="0.4" intercept="0"/></feComponentTransfer><feGaussianBlur stdDeviation="4.44444 4.44444"/></filter><filter id="fx1" x="-10%" y="-10%" width="120%" height="120%" filterUnits="userSpaceOnUse" primitiveUnits="userSpaceOnUse"><feComponentTransfer color-interpolation-filters="sRGB"><feFuncR type="discrete" tableValues="0 0"/><feFuncG type="discrete" tableValues="0 0"/><feFuncB type="discrete" tableValues="0 0"/><feFuncA type="linear" slope="0.4" intercept="0"/></feComponentTransfer><feGaussianBlur stdDeviation="6.66667 6.66667"/></filter><clipPath id="clip2"><rect x="0" y="0" width="1280" height="720"/></clipPath><clipPath id="clip3"><rect x="-2" y="-2" width="1240" height="675"/></clipPath><clipPath id="clip4"><rect x="0" y="0" width="1238" height="672"/></clipPath><linearGradient x1="640" y1="39" x2="640" y2="681" gradientUnits="userSpaceOnUse" spreadMethod="reflect" id="fill5"><stop offset="0" stop-color="#EBEDF3"/><stop offset="0.2" stop-color="#6EA274"/><stop offset="0.3" stop-color="#4B8159"/><stop offset="0.46" stop-color="#255D3B"/><stop offset="0.64" stop-color="#154E2F"/><stop offset="1" stop-color="#013C20"/></linearGradient><clipPath id="clip6"><rect x="-3" y="-3" width="1255" height="691"/></clipPath><clipPath id="clip7"><rect x="0" y="0" width="1250" height="684"/></clipPath><linearGradient x1="640" y1="39" x2="640" y2="681" gradientUnits="userSpaceOnUse" spreadMethod="reflect" id="fill8"><stop offset="0" stop-color="#EBEDF3"/><stop offset="0.2" stop-color="#6EA274"/><stop offset="0.3" stop-color="#4B8159"/><stop offset="0.46" stop-color="#255D3B"/><stop offset="0.64" stop-color="#154E2F"/><stop offset="1" stop-color="#013C20"/></linearGradient></defs><g clip-path="url(#clip2)"><rect x="0" y="0" width="1280" height="720" fill="#FFFFFF"/><g clip-path="url(#clip3)" filter="url(#fx0)" transform="translate(12 15)"><g clip-path="url(#clip4)"><path d="M14.5719 83.4137C14.5719 45.3934 45.3934 14.5719 83.4136 14.5719L1153.73 14.5719C1191.75 14.5719 1222.57 45.3934 1222.57 83.4137L1222.57 587.73C1222.57 625.75 1191.75 656.572 1153.73 656.572L83.4136 656.572C45.3934 656.572 14.5719 625.75 14.5719 587.73Z" fill="#FF0000" fill-rule="evenodd"/></g></g><path d="M36 107.842C36 69.8215 66.8215 39 104.842 39L1175.16 39C1213.18 39 1244 69.8215 1244 107.842L1244 612.158C1244 650.178 1213.18 681 1175.16 681L104.842 681C66.8215 681 36 650.178 36 612.158Z" fill="url(#fill5)" fill-rule="evenodd"/><g clip-path="url(#clip6)" filter="url(#fx1)" transform="translate(29 32)"><g clip-path="url(#clip7)"><path d="M21.1421 89.9839C21.1421 51.9636 51.9636 21.1421 89.9839 21.1421L1160.3 21.1421C1198.32 21.1421 1229.14 51.9636 1229.14 89.9839L1229.14 594.3C1229.14 632.321 1198.32 663.142 1160.3 663.142L89.9839 663.142C51.9636 663.142 21.1421 632.321 21.1421 594.3Z" fill="#FF0000" fill-rule="evenodd"/></g></g><path d="M36 107.842C36 69.8215 66.8215 39 104.842 39L1175.16 39C1213.18 39 1244 69.8215 1244 107.842L1244 612.158C1244 650.178 1213.18 681 1175.16 681L104.842 681C66.8215 681 36 650.178 36 612.158Z" fill="url(#fill8)" fill-rule="evenodd"/></g></svg>